<svg id="Layer_1" data-name="Layer 1" xmlns="http://www.w3.org/2000/svg" xmlns:xlink="http://www.w3.org/1999/xlink" viewBox="0 0 1600 509"><defs><style>.cls-1{fill:none;}.cls-2{fill:#feb92c;}.cls-3{fill:#223462;}.cls-4{fill:#6f6f6f;}.cls-5{clip-path:url(#clip-path);}.cls-6{fill:#42adfe;}.cls-7{fill:#ffb92c;}</style><clipPath id="clip-path"><rect class="cls-1" width="1600" height="509"/></clipPath></defs><title>Logo Kita - Horizontal</title><path class="cls-2" d="M754.31,276.78,754,226l-24.18,40.73H713.26l-24.18-39v49H654.87V165.41h30.87L722,224.75l35.32-59.35H788.2l.32,111.37Z"/><path class="cls-2" d="M802.2,221.09c0-33.73,26.57-58.23,62.85-58.23s62.85,24.5,62.85,58.23S901.32,279.33,865,279.33,802.2,254.82,802.2,221.09Zm87.83,0c0-17.34-11.14-27.84-25-27.84s-25,10.5-25,27.84,11.14,27.84,25,27.84S890,238.44,890,221.09Z"/><path class="cls-3" d="M1051.36,165.41V276.78h-37.55v-41H979.12v41H941.58V165.41h37.55v39.46h34.68V165.41Z"/><path class="cls-3" d="M1145.38,257.37h-42.32l-7.48,19.41H1057.4l48.69-111.37H1143l48.69,111.37h-38.82Zm-10.34-27-10.82-28-10.82,28Z"/><path class="cls-3" d="M1235.28,193.73v19.09h46.46v28.32h-46.46v35.64h-37.55V165.41h90.53v28.32Z"/><path class="cls-3" d="M1300.19,165.41h37.55V276.78h-37.55Z"/><path class="cls-3" d="M1355.88,165.41h54.89c37.23,0,62.85,21.16,62.85,55.69s-25.62,55.69-62.85,55.69h-54.89Zm53.3,82.1c15.75,0,26.57-9.39,26.57-26.41s-10.82-26.41-26.57-26.41h-15.75v52.82Z"/><path class="cls-3" d="M1585,247.66v29.12h-102.3V253.71l50.91-59.19h-49.32V165.41h98.17v23.07l-50.91,59.19Z"/><path class="cls-4" d="M734.29,353.38,734.24,327l-13.08,22h-2.38l-13.08-21.81v26.2h-5V317.21H705l15.09,25.43L735,317.21h4.24l.05,36.18Z"/><path class="cls-4" d="M762.68,335.29c0-10.59,8.17-18.5,19.28-18.5s19.17,7.86,19.17,18.5S793,353.8,782,353.8,762.68,345.89,762.68,335.29Zm33.28,0a13.58,13.58,0,0,0-14-13.9c-8.11,0-14.11,5.89-14.11,13.9s6,13.9,14.11,13.9A13.58,13.58,0,0,0,796,335.29Z"/><path class="cls-4" d="M855.66,317.21v36.18h-4.24l-21.71-27v27h-5.17V317.21h4.24l21.71,27v-27Z"/><path class="cls-4" d="M882,317.21h5.17v36.18H882Z"/><path class="cls-4" d="M920.69,321.7h-12.4v-4.5h29.92v4.5H925.8v31.68h-5.12Z"/><path class="cls-4" d="M955.89,335.29c0-10.59,8.17-18.5,19.28-18.5s19.17,7.86,19.17,18.5-8.17,18.5-19.17,18.5S955.89,345.89,955.89,335.29Zm33.28,0a13.58,13.58,0,0,0-14-13.9c-8.11,0-14.11,5.89-14.11,13.9s6,13.9,14.11,13.9A13.58,13.58,0,0,0,989.17,335.29Z"/><path class="cls-4" d="M1041.89,353.38l-7.8-11.11c-.72.05-1.5.1-2.27.1h-8.94v11h-5.17V317.21h14.11c9.41,0,15.09,4.75,15.09,12.61a11.42,11.42,0,0,1-8,11.42l8.58,12.15Zm-.16-23.57c0-5.17-3.46-8.11-10.08-8.11h-8.79V338h8.79C1038.27,338,1041.74,335,1041.74,329.82Z"/><path class="cls-4" d="M1070.79,317.21H1076v36.18h-5.17Z"/><path class="cls-4" d="M1133.38,317.21v36.18h-4.24l-21.71-27v27h-5.17V317.21h4.24l21.71,27v-27Z"/><path class="cls-4" d="M1184.76,335.09h5V349.2a21.38,21.38,0,0,1-13.7,4.6c-11.11,0-19.28-7.8-19.28-18.5s8.17-18.5,19.38-18.5c5.74,0,10.59,1.91,13.9,5.58l-3.2,3.2a14.34,14.34,0,0,0-10.49-4.19c-8.37,0-14.42,5.84-14.42,13.9s6,13.9,14.37,13.9a15.31,15.31,0,0,0,8.48-2.33Z"/><path class="cls-4" d="M1275.57,317.21v36.18h-5.17V337.26h-20.78v16.13h-5.17V317.21h5.17v15.56h20.78V317.21Z"/><path class="cls-4" d="M1325,344.34h-19.23l-4,9h-5.32l16.38-36.18H1318l16.43,36.18H1329Zm-1.81-4.13-7.8-17.73-7.8,17.73Z"/><path class="cls-4" d="M1360.4,321.7v12.61h18.14v4.44H1360.4v14.63h-5.17V317.21h25.53v4.5Z"/><path class="cls-4" d="M1403.5,317.21h5.17v36.18h-5.17Z"/><path class="cls-4" d="M1435,317.21h15.25c11.63,0,19.54,7.34,19.54,18.09s-7.91,18.09-19.54,18.09H1435ZM1450,348.89c8.94,0,14.68-5.48,14.68-13.59s-5.74-13.59-14.68-13.59h-9.77v27.18Z"/><path class="cls-4" d="M1519.85,348.89v4.5h-30.23v-3.51l22.74-28.17H1490v-4.5h29.2v3.51l-22.64,28.17Z"/><g class="cls-5"><path class="cls-3" d="M259.36,443.12S150.07,357.27,32,384.24l11.78-48.72A76.43,76.43,0,0,1,66,339.37l-4.82,26.55s107.07-13.69,198.14,77.19"/><path class="cls-6" d="M259.36,443.12s-97.69-120.7-246.09-120.7L96.45,74.19s6.76,1.09,26.11,8.46L51.91,293S200.2,335.17,259.36,443.12"/><path class="cls-2" d="M259.36,443.12C210.95,301.87,76.46,272,76.46,272L145.66,65.41a183.6,183.6,0,0,1,29.7,11.9,178.28,178.28,0,0,1,39.76,27.51l-11.56,31s-12.43-25.59-42.53-28L111.7,250.66s108.51,23.88,147.65,192.45"/><path class="cls-3" d="M330.84,443.12s109.29-85.84,227.39-58.88l-11.78-48.72a76.42,76.42,0,0,0-22.29,3.85L529,365.92s-107.07-13.69-198.14,77.19"/><path class="cls-6" d="M330.84,443.12s97.69-120.7,246.09-120.7L493.74,74.19s-6.76,1.09-26.11,8.46L538.28,293S390,335.17,330.84,443.12"/><path class="cls-7" d="M330.84,443.12C379.24,301.87,513.74,272,513.74,272L444.53,65.41a183.61,183.61,0,0,0-29.7,11.9,178.28,178.28,0,0,0-39.75,27.51l11.56,31s12.43-25.59,42.53-28l49.33,142.76S370,274.54,330.84,443.12"/><path class="cls-7" d="M405.32,240.58c-.2.23-.39.47-.59.69A93.06,93.06,0,1,1,307.32,90.33a105.92,105.92,0,1,0,98,150.25"/><polygon class="cls-7" points="338.9 131.18 349.5 158.18 378.45 159.91 356.05 178.34 363.34 206.41 338.9 190.79 314.45 206.41 321.75 178.34 299.35 159.91 328.3 158.18 338.9 131.18"/></g></svg>