<?xml version="1.0" standalone="yes"?>
<svg xmlns="http://www.w3.org/2000/svg" width="3014" height="3014">
<path style="fill:#ffffe5; stroke:none;" d="M0 0L0 3014L3014 3014L3014 0L0 0z"/>
<path style="fill:#ffb92e; stroke:none;" d="M808 746L775.333 845L708.333 1045L488 1703C772.005 1783 1026.91 1961.59 1192.33 2207C1230.65 2263.85 1264.27 2324.38 1292.14 2387C1307.04 2420.48 1318.13 2455.62 1333 2489L1334 2489C1331.11 2467.51 1323.81 2445.9 1318.15 2425C1306.01 2380.16 1292.27 2335.77 1276.69 2292C1204.26 2088.48 1091.36 1898.25 926 1756.73C871.576 1710.15 810.785 1669.82 746 1639.22C716.146 1625.12 684.506 1610.73 652 1604L676.667 1533L715.344 1421L822.656 1111L881 943C905.148 948.751 928.554 951.071 952 960.449C1005.13 981.703 1047.29 1023.32 1076 1072L1078 1072L1116.05 969L1131 928C1105.3 909.898 1082.57 886.799 1057 868.151C1006.47 831.305 951.465 801.1 894 776.579C866.672 764.917 837.183 752.04 808 746M1924 1072L1926 1072C1949.71 1016.98 2008.73 975.649 2063 955.424C2076.62 950.347 2091.61 946.993 2106 945C2110.11 944.43 2117.97 942.012 2121.3 945.407C2124.57 948.746 2125.56 955.671 2127 960C2130.67 971.007 2134.36 982.131 2138.42 993C2155.2 1037.88 2169.63 1083.73 2185.34 1129C2220.86 1231.3 2256.14 1333.7 2291.66 1436C2304.38 1472.65 2316.93 1509.35 2329.66 1546C2336.33 1565.23 2341.71 1585.4 2350 1604C2317.64 1610.68 2286.84 1624.99 2257 1638.69C2190.09 1669.42 2127.84 1711.93 2072 1759.73C1905.41 1902.32 1795.11 2095.45 1722.31 2300C1700.17 2362.21 1679.59 2427.09 1667 2492L1668 2492C1704.74 2396.76 1745.22 2306.13 1800.69 2220C1917.87 2038.07 2087.54 1893.57 2279 1794.74C2352.2 1756.96 2432.84 1719.8 2514 1703L2295 1050L2227.33 848L2193 746C2166.04 752.236 2139.51 763.46 2114 773.989C2052.75 799.266 1994.55 831.799 1941 870.849C1922.8 884.122 1904.86 897.986 1888 912.95C1883.54 916.913 1873.18 922.867 1871.93 929.004C1871.17 932.721 1873.91 937.614 1875.19 941C1878.61 949.984 1881.99 958.986 1885.32 968C1898.13 1002.64 1912.16 1037.02 1924 1072z"/>
<path style="fill:#44adff; stroke:none;" d="M580 787C572.814 818.06 559.752 848.744 549.667 879C529.099 940.705 508.235 1002.29 487.667 1064C423.188 1257.44 357.813 1450.56 293.333 1644C271.322 1710.03 249.013 1775.96 227 1842C216.986 1872.04 200.621 1904.71 196 1936C284.628 1939.81 371.795 1945.67 459 1964.21C672.727 2009.66 874.477 2106.51 1050 2235.88C1119.71 2287.26 1185.45 2343.23 1248 2403.04C1268.41 2422.56 1287.69 2443.33 1306.91 2464C1315.2 2472.91 1323.43 2486.94 1334 2493C1321.79 2463.68 1301.13 2436.13 1283.34 2410C1235.63 2339.92 1178.97 2275.64 1117 2217.91C907.567 2022.82 646.352 1886.77 375 1800C381.525 1785.28 385.293 1769.17 390.692 1754C406.132 1710.62 419.976 1666.65 434.667 1623C471.802 1512.68 509.189 1402.43 546 1292C581.134 1186.6 616.865 1081.4 652 976C668.458 926.627 690.269 876.706 702 826L623 797.975L580 787M2626 1801C2615.88 1801.88 2605.6 1806.47 2596 1809.67C2578.26 1815.58 2560.56 1821.52 2543 1827.95C2485.71 1848.9 2429.46 1872.3 2374 1897.69C2165.48 1993.17 1963.46 2121.96 1809.83 2294C1770.91 2337.59 1734.28 2383.6 1702.95 2433C1691.03 2451.79 1675.22 2471.84 1668 2493C1680.22 2484.01 1689.72 2469.13 1700.09 2458C1720.16 2436.46 1741.16 2415.81 1762 2395C1814.44 2342.65 1872.75 2294.82 1932 2250.38C2111.53 2115.73 2317.69 2012.06 2538 1965.21C2626.98 1946.29 2715.55 1939.89 2806 1936C2796.72 1895.87 2779.85 1855.91 2766.34 1817C2744.79 1754.91 2724.63 1692.28 2703.67 1630C2633.35 1421.11 2563.36 1212.09 2493.67 1003C2475.99 949.962 2458.01 897.034 2440.33 844L2426.67 803C2425.36 799.071 2424.18 790.429 2420.49 788.067C2416.69 785.637 2407.95 789.328 2404 790.424C2388.85 794.637 2373.92 799.36 2359 804.333C2344.56 809.147 2330.26 814.243 2316 819.576C2311.98 821.077 2303.36 822.375 2301.12 826.418C2298.92 830.394 2303.69 839.067 2305 843L2320 888C2340.46 949.393 2361.54 1010.61 2382 1072C2436.7 1236.09 2491.22 1400.28 2547 1564C2565.04 1616.94 2582.98 1669.94 2600.67 1723C2608.98 1747.93 2622.16 1775.02 2626 1801z"/>
<path style="fill:#ffb92e; stroke:none;" d="M2011 1558C2000.61 1565.47 1992.43 1577.13 1983 1585.91C1965.82 1601.91 1947.42 1616.6 1928 1629.81C1849.01 1683.52 1748.34 1710.9 1653 1701.83C1483.09 1685.66 1336.29 1571.74 1280.34 1410C1219.82 1235.04 1284.88 1036.96 1432 926.626C1467.66 899.884 1512.08 873.159 1556 863C1545.95 858.783 1529.6 862.805 1519 863.83C1487.44 866.885 1456.51 872.522 1426 881.291C1284.51 921.958 1168.17 1028.78 1111.42 1164C1088.18 1219.41 1075.71 1280.03 1075 1340C1074.2 1406.88 1084.4 1472.4 1109.2 1535C1127.05 1580.05 1151.84 1622.11 1182 1660C1278.32 1780.98 1431.82 1849.71 1586 1842.96C1654.62 1839.96 1719.86 1822.06 1782 1793.31C1857.6 1758.33 1922.87 1699.09 1970.02 1631C1985 1609.37 2003.64 1583.54 2011 1558M1703 1051C1692.49 1082.06 1679.18 1112.55 1667 1143C1663.87 1150.83 1660.19 1170.51 1652.78 1174.97C1644.01 1180.25 1624.11 1177.6 1614 1178.04C1582.98 1179.4 1552.02 1182.67 1521 1184C1527.53 1192.86 1538.47 1199.68 1547 1206.61C1563.75 1220.22 1580.36 1234.01 1597 1247.75C1604.2 1253.7 1617.62 1260.93 1622.1 1269.17C1625.95 1276.27 1617.02 1295.44 1615.13 1303C1607.11 1335.06 1599.02 1367.21 1590 1399C1600.04 1395.82 1609.12 1387.98 1618 1382.42C1636.43 1370.88 1654.71 1359.07 1673 1347.31C1680.2 1342.68 1695.37 1328.58 1704 1328.93C1713 1329.29 1727.46 1342.76 1735 1347.66C1753.57 1359.72 1772.24 1371.68 1791 1383.42C1799.37 1388.67 1807.69 1395.59 1817 1399C1812.8 1367.87 1800.79 1336.49 1793.13 1306C1790.82 1296.81 1782.8 1280.28 1784.9 1271C1786.89 1262.25 1804.32 1252.63 1811 1247.08C1835.84 1226.44 1860.36 1203.22 1887 1185L1887 1184L1791 1178L1763 1176.29L1753.65 1174.4L1741.6 1146L1716.42 1082L1703 1051z"/>
<path style="fill:#87919f; stroke:none;" d="M336 1997L299.626 2148L282 2223L283 2223L294.349 2175L321.873 2061L332.651 2016L336 1997z"/>
<path style="fill:#243563; stroke:none;" d="M337 1997L300.626 2148L283 2223C355.337 2202.66 434.351 2198.47 509 2199C731.66 2200.57 951.125 2270.91 1146 2376.31C1185.8 2397.83 1225.1 2420.6 1263 2445.34C1286.35 2460.59 1308.38 2478.29 1332 2493C1329.11 2487.07 1322.65 2482.65 1318 2478C1306.47 2466.48 1294.25 2455.46 1282 2444.72C1240.49 2408.3 1197.47 2374.32 1152 2342.97C993.421 2233.68 804.696 2162.36 613 2141.83C549.043 2134.99 482.108 2129.9 418 2138C420.412 2107.69 429.033 2076.97 434.25 2047C435.414 2040.31 442.427 2021.38 438.883 2015.51C435.632 2010.12 419.746 2008.56 414 2007.13C389.169 2000.92 362.595 1997 337 1997z"/>
<path style="fill:#87919f; stroke:none;" d="M347 1997L347 1998L355 1998L347 1997M2647 1997L2647 1998L2654 1998L2647 1997z"/>
<path style="fill:#243563; stroke:none;" d="M2584 2138C2514.92 2129.27 2441.78 2134.76 2373 2143.72C2188.48 2167.76 2011.76 2234.82 1857 2338C1810.72 2368.85 1766.74 2403.1 1725 2439.84C1706.65 2456 1683.1 2472.98 1669 2493C1690.14 2482.47 1709.05 2464.54 1729 2451.69C1775.15 2421.97 1822.2 2393.45 1871 2368.26C2063.68 2268.81 2274.79 2200.54 2493 2199C2567.65 2198.47 2646.66 2202.66 2719 2223L2703.37 2157L2678.13 2052L2665 1997C2639.4 1997 2612.84 2000.92 2588 2007.13C2582.25 2008.56 2566.38 2010.12 2563.12 2015.51C2559.49 2021.5 2566.5 2041.21 2567.8 2048C2573.51 2077.77 2580.18 2107.93 2584 2138z"/>
<path style="fill:#87919f; stroke:none;" d="M2665 1997L2665 2001L2666 2001L2665 1997M361 1998L361 1999L366 1999L361 1998M2636 1998L2636 1999L2641 1999L2636 1998M371 1999L371 2000L375 2000L371 1999M2627 1999L2627 2000L2631 2000L2627 1999M379 2000L379 2001L382 2001L379 2000M2620 2000L2620 2001L2623 2001L2620 2000M385 2001L385 2002L388 2002L385 2001M2614 2001L2614 2002L2617 2002L2614 2001M2666 2001L2666 2005L2667 2005L2666 2001M391 2002L391 2003L394 2003L391 2002M2608 2002L2608 2003L2611 2003L2608 2002M397.667 2003.33L398.333 2003.67L397.667 2003.33M2603.67 2003.33L2604.33 2003.67L2603.67 2003.33M402.667 2004.33L403.333 2004.67L402.667 2004.33M2598.67 2004.33L2599.33 2004.67L2598.67 2004.33M407.667 2005.33L408.333 2005.67L407.667 2005.33M2593.67 2005.33L2594.33 2005.67L2593.67 2005.33M2667 2005L2667 2009L2668 2009L2667 2005M411.667 2006.33L412.333 2006.67L411.667 2006.33M2589.67 2006.33L2590.33 2006.67L2589.67 2006.33M415.667 2007.33L416.333 2007.67L415.667 2007.33M2585.67 2007.33L2586.33 2007.67L2585.67 2007.33M419.667 2008.33L420.333 2008.67L419.667 2008.33M2581.67 2008.33L2582.33 2008.67L2581.67 2008.33M423.667 2009.33L424.333 2009.67L423.667 2009.33M2577.67 2009.33L2578.33 2009.67L2577.67 2009.33M2668 2009L2668 2013L2669 2013L2668 2009M426.667 2010.33L427.333 2010.67L426.667 2010.33M2574.67 2010.33L2575.33 2010.67L2574.67 2010.33M430 2011L431 2012L430 2011M2571 2011L2572 2012L2571 2011M433.667 2012.33L434.333 2012.67L433.667 2012.33M2567.67 2012.33L2568.33 2012.67L2567.67 2012.33M436.667 2013.33L437.333 2013.67L436.667 2013.33M2564.67 2013.33L2565.33 2013.67L2564.67 2013.33M2669 2013L2669 2017L2670 2017L2669 2013M439 2014L440 2015L439 2014M2561 2014L2561 2018L2562 2018L2563 2014L2561 2014M440 2015L440 2018L441 2018L440 2015M2670 2017L2670 2021L2671 2021L2670 2017M439 2018L439 2023L440 2023L439 2018M2562 2018L2562 2024L2563 2024L2562 2018M2671 2021L2671 2025L2672 2025L2671 2021M438 2023L438 2029L439 2029L438 2023M2563 2024L2563 2029L2564 2029L2563 2024M2672 2025L2672 2030L2673 2030L2672 2025M437 2029L437 2034L438 2034L437 2029M2564 2029L2564 2035L2565 2035L2564 2029M2673 2030L2673 2034L2674 2034L2673 2030M436 2034L436 2040L437 2040L436 2034M2674 2034L2674 2038L2675 2038L2674 2034M2565 2035L2565 2040L2566 2040L2565 2035M2675 2038L2675 2042L2676 2042L2675 2038M435 2040L435 2045L436 2045L435 2040M2566 2040L2566 2046L2567 2046L2566 2040M2676 2042L2676 2046L2677 2046L2676 2042M434 2045L434 2051L435 2051L434 2045M2567 2046L2567 2051L2568 2051L2567 2046M2677 2046L2677 2050L2678 2050L2677 2046M2678 2050L2678 2054L2679 2054L2678 2050M433 2051L433 2056L434 2056L433 2051M2568 2051L2568 2057L2569 2057L2568 2051M2679 2054L2679 2058L2680 2058L2679 2054M432 2056L432 2062L433 2062L432 2056M2569 2057L2569 2062L2570 2062L2569 2057M2680 2058L2680 2063L2681 2063L2680 2058M431 2062L431 2067L432 2067L431 2062M2570 2062L2570 2068L2571 2068L2570 2062M2681 2063L2681 2067L2682 2067L2681 2063M430 2067L430 2073L431 2073L430 2067M2682 2067L2682 2071L2683 2071L2682 2067M2571 2068L2571 2073L2572 2073L2571 2068M2683 2071L2683 2075L2684 2075L2683 2071M429 2073L429 2078L430 2078L429 2073M2572 2073L2572 2079L2573 2079L2572 2073M2684 2075L2684 2079L2685 2079L2684 2075M428 2078L428 2084L429 2084L428 2078M2573 2079L2573 2084L2574 2084L2573 2079M2685 2079L2685 2083L2686 2083L2685 2079M2686 2083L2686 2087L2687 2087L2686 2083M427 2084L427 2089L428 2089L427 2084M2574 2084L2574 2090L2575 2090L2574 2084M2687 2087L2687 2092L2688 2092L2687 2087M426 2089L426 2095L427 2095L426 2089M2575 2090L2575 2095L2576 2095L2575 2090M2688 2092L2688 2096L2689 2096L2688 2092M425 2095L425 2100L426 2100L425 2095M2576 2095L2576 2101L2577 2101L2576 2095M2689 2096L2689 2100L2690 2100L2689 2096M424 2100L424 2106L425 2106L424 2100M2690 2100L2690 2104L2691 2104L2690 2100M2577 2101L2577 2106L2578 2106L2577 2101M2691 2104L2691 2108L2692 2108L2691 2104M423 2106L423 2111L424 2111L423 2106M2578 2106L2578 2112L2579 2112L2578 2106M2692 2108L2692 2112L2693 2112L2692 2108M422 2111L422 2117L423 2117L422 2111M2579 2112L2579 2117L2580 2117L2579 2112M2693 2112L2693 2116L2694 2116L2693 2112M2694 2116L2694 2120L2695 2120L2694 2116M421 2117L421 2122L422 2122L421 2117M2580 2117L2580 2123L2581 2123L2580 2117M2695 2120L2695 2125L2696 2125L2695 2120M420 2122L420 2128L421 2128L420 2122M2581 2123L2581 2128L2582 2128L2581 2123M2696 2125L2696 2129L2697 2129L2696 2125M419 2128L419 2133L420 2133L419 2128M2582 2128L2582 2134L2583 2134L2582 2128M2697 2129L2697 2133L2698 2133L2697 2129M418 2133L418 2138L422 2138L422 2137L419 2137L418 2133M2698 2133L2698 2137L2699 2137L2698 2133M462 2134L462 2135L520 2135L501 2134L462 2134M2482 2134L2482 2135L2540 2135L2521 2134L2482 2134M2583 2134L2580 2137L2580 2138L2584 2138L2583 2134M441 2135L441 2136L450 2136L441 2135M534 2135L534 2136L544 2136L534 2135M2458 2135L2458 2136L2468 2136L2458 2135M2552 2135L2552 2136L2561 2136L2552 2135M427 2136L427 2137L433 2137L427 2136M553 2136L553 2137L561 2137L553 2136M2441 2136L2441 2137L2449 2137L2441 2136M2569 2136L2569 2137L2575 2137L2569 2136M568 2137L568 2138L574 2138L568 2137M2428 2137L2428 2138L2434 2138L2428 2137M2699 2137L2699 2141L2700 2141L2699 2137M580 2138L580 2139L586 2139L580 2138M2416 2138L2416 2139L2422 2139L2416 2138M591 2139L591 2140L596 2140L591 2139M2406 2139L2406 2140L2411 2140L2406 2139M601 2140L601 2141L606 2141L601 2140M2396 2140L2396 2141L2401 2141L2396 2140M610 2141L610 2142L615 2142L610 2141M2387 2141L2387 2142L2391 2142L2387 2141M2700 2141L2700 2145L2701 2145L2700 2141M619 2142L619 2143L623 2143L619 2142M2379 2142L2379 2143L2383 2143L2379 2142M627 2143L627 2144L631 2144L627 2143M2371 2143L2371 2144L2375 2144L2371 2143M635 2144L635 2145L638 2145L635 2144M2364 2144L2364 2145L2367 2145L2364 2144M642 2145L642 2146L646 2146L642 2145M2356 2145L2356 2146L2360 2146L2356 2145M2701 2145L2701 2149L2702 2149L2701 2145M649 2146L649 2147L652 2147L649 2146M2350 2146L2350 2147L2353 2147L2350 2146M656 2147L656 2148L659 2148L656 2147M2343 2147L2343 2148L2346 2148L2343 2147M662 2148L662 2149L665 2149L662 2148M2337 2148L2337 2149L2340 2149L2337 2148M668 2149L668 2150L671 2150L668 2149M2331 2149L2331 2150L2334 2150L2331 2149M2702 2149L2702 2154L2703 2154L2702 2149M674 2150L674 2151L677 2151L674 2150M2325 2150L2325 2151L2328 2151L2325 2150M680 2151L680 2152L683 2152L680 2151M2319 2151L2319 2152L2322 2152L2319 2151M686 2152L686 2153L689 2153L686 2152M2313 2152L2313 2153L2316 2153L2313 2152M691 2153L691 2154L694 2154L691 2153M2308 2153L2308 2154L2311 2154L2308 2153M697.667 2154.33L698.333 2154.67L697.667 2154.33M2303.67 2154.33L2304.33 2154.67L2303.67 2154.33M2703 2154L2703 2158L2704 2158L2703 2154M702 2155L702 2156L705 2156L702 2155M2297 2155L2297 2156L2300 2156L2297 2155M707 2156L707 2157L710 2157L707 2156M2292 2156L2292 2157L2295 2157L2292 2156M712 2157L712 2158L715 2158L712 2157M2287 2157L2287 2158L2290 2158L2287 2157M717.667 2158.33L718.333 2158.67L717.667 2158.33M2283.67 2158.33L2284.33 2158.67L2283.67 2158.33M2704 2158L2704 2162L2705 2162L2704 2158M722.667 2159.33L723.333 2159.67L722.667 2159.33M2278.67 2159.33L2279.33 2159.67L2278.67 2159.33M727.667 2160.33L728.333 2160.67L727.667 2160.33M2273.67 2160.33L2274.33 2160.67L2273.67 2160.33M731.667 2161.33L732.333 2161.67L731.667 2161.33M2269.67 2161.33L2270.33 2161.67L2269.67 2161.33M736.667 2162.33L737.333 2162.67L736.667 2162.33M2264.67 2162.33L2265.33 2162.67L2264.67 2162.33M2705 2162L2705 2166L2706 2166L2705 2162M740.667 2163.33L741.333 2163.67L740.667 2163.33M2260.67 2163.33L2261.33 2163.67L2260.67 2163.33M744 2164L744 2165L747 2165L744 2164M2255 2164L2255 2165L2258 2165L2255 2164M749.667 2165.33L750.333 2165.67L749.667 2165.33M2251.67 2165.33L2252.33 2165.67L2251.67 2165.33M753.667 2166.33L754.333 2166.67L753.667 2166.33M2247.67 2166.33L2248.33 2166.67L2247.67 2166.33M2706 2166L2706 2170L2707 2170L2706 2166M757.667 2167.33L758.333 2167.67L757.667 2167.33M2243.67 2167.33L2244.33 2167.67L2243.67 2167.33M761.667 2168.33L762.333 2168.67L761.667 2168.33M2239.67 2168.33L2240.33 2168.67L2239.67 2168.33M765.667 2169.33L766.333 2169.67L765.667 2169.33M2235.67 2169.33L2236.33 2169.67L2235.67 2169.33M769.667 2170.33L770.333 2170.67L769.667 2170.33M2231.67 2170.33L2232.33 2170.67L2231.67 2170.33M2707 2170L2707 2174L2708 2174L2707 2170M773.667 2171.33L774.333 2171.67L773.667 2171.33M2227.67 2171.33L2228.33 2171.67L2227.67 2171.33M777.667 2172.33L778.333 2172.67L777.667 2172.33M2223.67 2172.33L2224.33 2172.67L2223.67 2172.33M781.667 2173.33L782.333 2173.67L781.667 2173.33M2219.67 2173.33L2220.33 2173.67L2219.67 2173.33M785 2174L786 2175L785 2174M2216 2174L2217 2175L2216 2174M2708 2174L2708 2178L2709 2178L2708 2174M788.667 2175.33L789.333 2175.67L788.667 2175.33M2212.67 2175.33L2213.33 2175.67L2212.67 2175.33M792.667 2176.33L793.333 2176.67L792.667 2176.33M2208.67 2176.33L2209.33 2176.67L2208.67 2176.33M796 2177L797 2178L796 2177M2205 2177L2206 2178L2205 2177M799.667 2178.33L800.333 2178.67L799.667 2178.33M2201.67 2178.33L2202.33 2178.67L2201.67 2178.33M2709 2178L2709 2183L2710 2183L2709 2178M803 2179L804 2180L803 2179M2198 2179L2199 2180L2198 2179M806.667 2180.33L807.333 2180.67L806.667 2180.33M2194.67 2180.33L2195.33 2180.67L2194.67 2180.33M810 2181L811 2182L810 2181M2191 2181L2192 2182L2191 2181M813.667 2182.33L814.333 2182.67L813.667 2182.33M2187.67 2182.33L2188.33 2182.67L2187.67 2182.33M816.667 2183.33L817.333 2183.67L816.667 2183.33M2184.67 2183.33L2185.33 2183.67L2184.67 2183.33M2710 2183L2710 2187L2711 2187L2710 2183M820 2184L821 2185L820 2184M2181 2184L2182 2185L2181 2184M823.667 2185.33L824.333 2185.67L823.667 2185.33M2177.67 2185.33L2178.33 2185.67L2177.67 2185.33M826.667 2186.33L827.333 2186.67L826.667 2186.33M2174.67 2186.33L2175.33 2186.67L2174.67 2186.33M830 2187L831 2188L830 2187M2171 2187L2172 2188L2171 2187M2711 2187L2711 2191L2712 2191L2711 2187M833 2188L834 2189L833 2188M2168 2188L2169 2189L2168 2188M836.667 2189.33L837.333 2189.67L836.667 2189.33M2164.67 2189.33L2165.33 2189.67L2164.67 2189.33M839.667 2190.33L840.333 2190.67L839.667 2190.33M2161.67 2190.33L2162.33 2190.67L2161.67 2190.33M842.667 2191.33L843.333 2191.67L842.667 2191.33M2158.67 2191.33L2159.33 2191.67L2158.67 2191.33M2712 2191L2712 2195L2713 2195L2712 2191M845.667 2192.33L846.333 2192.67L845.667 2192.33M2155.67 2192.33L2156.33 2192.67L2155.67 2192.33M848.667 2193.33L849.333 2193.67L848.667 2193.33M2152.67 2193.33L2153.33 2193.67L2152.67 2193.33M851.667 2194.33L852.333 2194.67L851.667 2194.33M2149 2194L2150 2195L2149 2194M854.667 2195.33L855.333 2195.67L854.667 2195.33M2146 2195L2147 2196L2146 2195M2713 2195L2713 2199L2714 2199L2713 2195M857.667 2196.33L858.333 2196.67L857.667 2196.33M2143 2196L2144 2197L2143 2196M860.667 2197.33L861.333 2197.67L860.667 2197.33M2140.67 2197.33L2141.33 2197.67L2140.67 2197.33M501.667 2198.33L502.333 2198.67L501.667 2198.33M863.667 2198.33L864.333 2198.67L863.667 2198.33M2137.67 2198.33L2138.33 2198.67L2137.67 2198.33M2499.67 2198.33L2500.33 2198.67L2499.67 2198.33M456 2199L456 2200L470 2200L456 2199M534 2199L534 2200L548 2200L534 2199M866.667 2199.33L867.333 2199.67L866.667 2199.33M2134.67 2199.33L2135.33 2199.67L2134.67 2199.33M2454 2199L2454 2200L2468 2200L2454 2199M2532 2199L2532 2200L2546 2200L2532 2199M2714 2199L2714 2203L2715 2203L2714 2199M438 2200L438 2201L446 2201L438 2200M558 2200L558 2201L567 2201L558 2200M869.667 2200.33L870.333 2200.67L869.667 2200.33M2131.67 2200.33L2132.33 2200.67L2131.67 2200.33M2435 2200L2435 2201L2444 2201L2435 2200M2556 2200L2556 2201L2564 2201L2556 2200M423 2201L423 2202L430 2202L423 2201M575 2201L575 2202L582 2202L575 2201M872 2201L873 2202L872 2201M2129 2201L2130 2202L2129 2201M2420 2201L2420 2202L2427 2202L2420 2201M2572 2201L2572 2202L2579 2202L2572 2201M411 2202L411 2203L417 2203L411 2202M588 2202L588 2203L594 2203L588 2202M875 2202L876 2203L875 2202M2126 2202L2127 2203L2126 2202M2408 2202L2408 2203L2414 2203L2408 2202M2585 2202L2585 2203L2591 2203L2585 2202M401 2203L401 2204L406 2204L401 2203M600 2203L600 2204L605 2204L600 2203M878 2203L879 2204L878 2203M2123 2203L2124 2204L2123 2203M2397 2203L2397 2204L2402 2204L2397 2203M2596 2203L2596 2204L2601 2204L2596 2203M2715 2203L2715 2207L2716 2207L2715 2203M391 2204L391 2205L396 2205L391 2204M610 2204L610 2205L615 2205L610 2204M880.667 2204.33L881.333 2204.67L880.667 2204.33M2120 2204L2121 2205L2120 2204M2387 2204L2387 2205L2392 2205L2387 2204M2606 2204L2606 2205L2611 2205L2606 2204M383 2205L383 2206L387 2206L383 2205M620 2205L620 2206L624 2206L620 2205M883.667 2205.33L884.333 2205.67L883.667 2205.33M2117.67 2205.33L2118.33 2205.67L2117.67 2205.33M2378 2205L2378 2206L2382 2206L2378 2205M2615 2205L2615 2206L2619 2206L2615 2205M375 2206L375 2207L378 2207L375 2206M629 2206L629 2207L633 2207L629 2206M886 2206L887 2207L886 2206M2115 2206L2116 2207L2115 2206M2369 2206L2369 2207L2373 2207L2369 2206M2623 2206L2623 2207L2627 2207L2623 2206M367 2207L367 2208L371 2208L367 2207M637 2207L637 2208L641 2208L637 2207M889 2207L890 2208L889 2207M2112 2207L2113 2208L2112 2207M2361 2207L2361 2208L2365 2208L2361 2207M2631 2207L2631 2208L2635 2208L2631 2207M2716 2207L2716 2211L2717 2211L2716 2207M360 2208L360 2209L363 2209L360 2208M645 2208L645 2209L649 2209L645 2208M891.667 2208.33L892.333 2208.67L891.667 2208.33M2109.67 2208.33L2110.33 2208.67L2109.67 2208.33M2353 2208L2353 2209L2357 2209L2353 2208M2639 2208L2639 2209L2642 2209L2639 2208M353 2209L353 2210L356 2210L353 2209M652 2209L652 2210L656 2210L652 2209M894 2209L895 2210L894 2209M2106.67 2209.33L2107.33 2209.67L2106.67 2209.33M2346 2209L2346 2210L2350 2210L2346 2209M2646 2209L2646 2210L2649 2210L2646 2209M346 2210L346 2211L350 2211L346 2210M660 2210L660 2211L663 2211L660 2210M897 2210L898 2211L897 2210M2104 2210L2105 2211L2104 2210M2339 2210L2339 2211L2342 2211L2339 2210M2652 2210L2652 2211L2656 2211L2652 2210M340 2211L340 2212L343 2212L340 2211M666 2211L666 2212L670 2212L666 2211M899.667 2211.33L900.333 2211.67L899.667 2211.33M2101.67 2211.33L2102.33 2211.67L2101.67 2211.33M2332 2211L2332 2212L2335 2212L2332 2211M2659 2211L2659 2212L2662 2212L2659 2211M2717 2211L2717 2216L2718 2216L2717 2211M334 2212L334 2213L337 2213L334 2212M673 2212L673 2213L676 2213L673 2212M902 2212L903 2213L902 2212M2099 2212L2100 2213L2099 2212M2326 2212L2326 2213L2329 2213L2326 2212M2665 2212L2665 2213L2668 2213L2665 2212M329.667 2213.33L330.333 2213.67L329.667 2213.33M679 2213L679 2214L682 2214L679 2213M905 2213L906 2214L905 2213M2096 2213L2097 2214L2096 2213M2319 2213L2319 2214L2323 2214L2319 2213M2671.67 2213.33L2672.33 2213.67L2671.67 2213.33M323 2214L323 2215L326 2215L323 2214M686 2214L686 2215L689 2215L686 2214M907.667 2214.33L908.333 2214.67L907.667 2214.33M2093.67 2214.33L2094.33 2214.67L2093.67 2214.33M2313 2214L2313 2215L2316 2215L2313 2214M2676 2214L2676 2215L2679 2215L2676 2214M318.667 2215.33L319.333 2215.67L318.667 2215.33M691 2215L691 2216L694 2216L691 2215M910 2215L911 2216L910 2215M2091 2215L2092 2216L2091 2215M2308.67 2215.33L2309.33 2215.67L2308.67 2215.33M2682.67 2215.33L2683.33 2215.67L2682.67 2215.33M312 2216L312 2217L315 2217L312 2216M697 2216L697 2217L700 2217L697 2216M912.667 2216.33L913.333 2216.67L912.667 2216.33M2088.67 2216.33L2089.33 2216.67L2088.67 2216.33M2302 2216L2302 2217L2305 2217L2302 2216M2687 2216L2687 2217L2690 2217L2687 2216M2718 2216L2718 2220L2719 2220L2718 2216M307 2217L307 2218L310 2218L307 2217M703 2217L703 2218L706 2218L703 2217M915 2217L916 2218L915 2217M2086 2217L2087 2218L2086 2217M2296 2217L2296 2218L2299 2218L2296 2217M2692 2217L2692 2218L2695 2218L2692 2217M302 2218L302 2219L305 2219L302 2218M708 2218L708 2219L711 2219L708 2218M918 2218L919 2219L918 2218M2083 2218L2084 2219L2083 2218M2291 2218L2291 2219L2294 2219L2291 2218M2697 2218L2697 2219L2700 2219L2697 2218M298.667 2219.33L299.333 2219.67L298.667 2219.33M714.667 2219.33L715.333 2219.67L714.667 2219.33M920 2219L921 2220L920 2219M2081 2219L2082 2220L2081 2219M2286.67 2219.33L2287.33 2219.67L2286.67 2219.33M2702.67 2219.33L2703.33 2219.67L2702.67 2219.33M293.667 2220.33L294.333 2220.67L293.667 2220.33M719 2220L719 2221L722 2221L719 2220M923 2220L924 2221L923 2220M2078 2220L2079 2221L2078 2220M2280 2220L2280 2221L2283 2221L2280 2220M2707.67 2220.33L2708.33 2220.67L2707.67 2220.33M2719 2220L2719 2223L2720 2223L2719 2220M288 2221L288 2222L291 2222L288 2221M724 2221L724 2222L727 2222L724 2221M925 2221L926 2222L925 2221M2076 2221L2077 2222L2076 2221M2275 2221L2275 2222L2278 2222L2275 2221M2711 2221L2711 2222L2714 2222L2711 2221M284.667 2222.33L285.333 2222.67L284.667 2222.33M729 2222L729 2223L732 2223L729 2222M927.667 2222.33L928.333 2222.67L927.667 2222.33M2073.67 2222.33L2074.33 2222.67L2073.67 2222.33M2270 2222L2270 2223L2273 2223L2270 2222M2716.67 2222.33L2717.33 2222.67L2716.67 2222.33M734.667 2223.33L735.333 2223.67L734.667 2223.33M930 2223L931 2224L930 2223M2071 2223L2072 2224L2071 2223M2266.67 2223.33L2267.33 2223.67L2266.67 2223.33M739.667 2224.33L740.333 2224.67L739.667 2224.33M932.667 2224.33L933.333 2224.67L932.667 2224.33M2068.67 2224.33L2069.33 2224.67L2068.67 2224.33M2261.67 2224.33L2262.33 2224.67L2261.67 2224.33M743 2225L743 2226L746 2226L743 2225M935 2225L936 2226L935 2225M2066 2225L2067 2226L2066 2225M2256.67 2225.33L2257.33 2225.67L2256.67 2225.33M748.667 2226.33L749.333 2226.67L748.667 2226.33M937 2226L938 2227L937 2226M2064 2226L2065 2227L2064 2226M2252.67 2226.33L2253.33 2226.67L2252.67 2226.33M753.667 2227.33L754.333 2227.67L753.667 2227.33M940 2227L941 2228L940 2227M2061 2227L2062 2228L2061 2227M2247.67 2227.33L2248.33 2227.67L2247.67 2227.33M757.667 2228.33L758.333 2228.67L757.667 2228.33M942 2228L943 2229L942 2228M2059 2228L2060 2229L2059 2228M2243.67 2228.33L2244.33 2228.67L2243.67 2228.33M762.667 2229.33L763.333 2229.67L762.667 2229.33M944 2229L945 2230L944 2229M2057 2229L2058 2230L2057 2229M2238.67 2229.33L2239.33 2229.67L2238.67 2229.33M766.667 2230.33L767.333 2230.67L766.667 2230.33M947 2230L948 2231L947 2230M2054 2230L2055 2231L2054 2230M2234.67 2230.33L2235.33 2230.67L2234.67 2230.33M770.667 2231.33L771.333 2231.67L770.667 2231.33M949 2231L950 2232L949 2231M2052 2231L2053 2232L2052 2231M2230.67 2231.33L2231.33 2231.67L2230.67 2231.33M774.667 2232.33L775.333 2232.67L774.667 2232.33M951 2232L952 2233L951 2232M2050 2232L2051 2233L2050 2232M2226.67 2232.33L2227.33 2232.67L2226.67 2232.33M778 2233L778 2234L781 2234L778 2233M954 2233L955 2234L954 2233M2047 2233L2048 2234L2047 2233M2221.67 2233.33L2222.33 2233.67L2221.67 2233.33M783.667 2234.33L784.333 2234.67L783.667 2234.33M956 2234L957 2235L956 2234M2045 2234L2046 2235L2045 2234M2217.67 2234.33L2218.33 2234.67L2217.67 2234.33M787.667 2235.33L788.333 2235.67L787.667 2235.33M958 2235L959 2236L958 2235M2043 2235L2044 2236L2043 2235M2213.67 2235.33L2214.33 2235.67L2213.67 2235.33M791.667 2236.33L792.333 2236.67L791.667 2236.33M960.667 2236.33L961.333 2236.67L960.667 2236.33M2040.67 2236.33L2041.33 2236.67L2040.67 2236.33M2209.67 2236.33L2210.33 2236.67L2209.67 2236.33M795 2237L796 2238L795 2237M963 2237L964 2238L963 2237M2038 2237L2039 2238L2038 2237M2205.67 2237.33L2206.33 2237.67L2205.67 2237.33M798.667 2238.33L799.333 2238.67L798.667 2238.33M965 2238L966 2239L965 2238M2036 2238L2037 2239L2036 2238M2202.67 2238.33L2203.33 2238.67L2202.67 2238.33M802.667 2239.33L803.333 2239.67L802.667 2239.33M967 2239L968 2240L967 2239M2034 2239L2035 2240L2034 2239M2198.67 2239.33L2199.33 2239.67L2198.67 2239.33M806.667 2240.33L807.333 2240.67L806.667 2240.33M969 2240L970 2241L969 2240M2031.67 2240.33L2032.33 2240.67L2031.67 2240.33M2194.67 2240.33L2195.33 2240.67L2194.67 2240.33M810.667 2241.33L811.333 2241.67L810.667 2241.33M972 2241L973 2242L972 2241M2029 2241L2030 2242L2029 2241M2190.67 2241.33L2191.33 2241.67L2190.67 2241.33M814 2242L815 2243L814 2242M974 2242L975 2243L974 2242M2027 2242L2028 2243L2027 2242M2187 2242L2188 2243L2187 2242M817.667 2243.33L818.333 2243.67L817.667 2243.33M976 2243L977 2244L976 2243M2025 2243L2026 2244L2025 2243M2183.67 2243.33L2184.33 2243.67L2183.67 2243.33M821.667 2244.33L822.333 2244.67L821.667 2244.33M978 2244L979 2245L978 2244M2023 2244L2024 2245L2023 2244M2179.67 2244.33L2180.33 2244.67L2179.67 2244.33M824.667 2245.33L825.333 2245.67L824.667 2245.33M980 2245L981 2246L980 2245M2021 2245L2022 2246L2021 2245M2176.67 2245.33L2177.33 2245.67L2176.67 2245.33M828.667 2246.33L829.333 2246.67L828.667 2246.33M982 2246L983 2247L982 2246M2018.67 2246.33L2019.33 2246.67L2018.67 2246.33M2172.67 2246.33L2173.33 2246.67L2172.67 2246.33M831.667 2247.33L832.333 2247.67L831.667 2247.33M985 2247L986 2248L985 2247M2016 2247L2017 2248L2016 2247M2169 2247L2170 2248L2169 2247M835.667 2248.33L836.333 2248.67L835.667 2248.33M987 2248L988 2249L987 2248M2014 2248L2015 2249L2014 2248M2165.67 2248.33L2166.33 2248.67L2165.67 2248.33M838.667 2249.33L839.333 2249.67L838.667 2249.33M989 2249L990 2250L989 2249M2012 2249L2013 2250L2012 2249M2162.67 2249.33L2163.33 2249.67L2162.67 2249.33M842.667 2250.33L843.333 2250.67L842.667 2250.33M991 2250L992 2251L991 2250M2010 2250L2011 2251L2010 2250M2158.67 2250.33L2159.33 2250.67L2158.67 2250.33M845.667 2251.33L846.333 2251.67L845.667 2251.33M993 2251L994 2252L993 2251M2008 2251L2009 2252L2008 2251M2155.67 2251.33L2156.33 2251.67L2155.67 2251.33M849 2252L850 2253L849 2252M995 2252L996 2253L995 2252M2006 2252L2007 2253L2006 2252M2152 2252L2153 2253L2152 2252M852.667 2253.33L853.333 2253.67L852.667 2253.33M997 2253L998 2254L997 2253M2004 2253L2005 2254L2004 2253M2148.67 2253.33L2149.33 2253.67L2148.67 2253.33M855.667 2254.33L856.333 2254.67L855.667 2254.33M999 2254L1000 2255L999 2254M2002 2254L2003 2255L2002 2254M2145.67 2254.33L2146.33 2254.67L2145.67 2254.33M858.667 2255.33L859.333 2255.67L858.667 2255.33M1001 2255L1002 2256L1001 2255M2000 2255L2001 2256L2000 2255M2142.67 2255.33L2143.33 2255.67L2142.67 2255.33M862 2256L863 2257L862 2256M1003 2256L1004 2257L1003 2256M1998 2256L1999 2257L1998 2256M2139 2256L2140 2257L2139 2256M865 2257L866 2258L865 2257M1005 2257L1006 2258L1005 2257M1996 2257L1997 2258L1996 2257M2135.67 2257.33L2136.33 2257.67L2135.67 2257.33M868.667 2258.33L869.333 2258.67L868.667 2258.33M1007 2258L1008 2259L1007 2258M1994 2258L1995 2259L1994 2258M2132.67 2258.33L2133.33 2258.67L2132.67 2258.33M871.667 2259.33L872.333 2259.67L871.667 2259.33M1009 2259L1010 2260L1009 2259M1992 2259L1993 2260L1992 2259M2129.67 2259.33L2130.33 2259.67L2129.67 2259.33M874.667 2260.33L875.333 2260.67L874.667 2260.33M1011 2260L1012 2261L1011 2260M1990 2260L1991 2261L1990 2260M2126.67 2260.33L2127.33 2260.67L2126.67 2260.33M878 2261L879 2262L878 2261M1013 2261L1014 2262L1013 2261M1988 2261L1989 2262L1988 2261M2123 2261L2124 2262L2123 2261M881 2262L882 2263L881 2262M1015 2262L1016 2263L1015 2262M1986 2262L1987 2263L1986 2262M2120 2262L2121 2263L2120 2262M884 2263L885 2264L884 2263M1017 2263L1018 2264L1017 2263M1984 2263L1985 2264L1984 2263M2117 2263L2118 2264L2117 2263M887 2264L888 2265L887 2264M1019 2264L1020 2265L1019 2264M1982 2264L1983 2265L1982 2264M2114 2264L2115 2265L2114 2264M890 2265L891 2266L890 2265M1021 2265L1022 2266L1021 2265M1980 2265L1981 2266L1980 2265M2111 2265L2112 2266L2111 2265M893 2266L894 2267L893 2266M1023 2266L1024 2267L1023 2266M1978 2266L1979 2267L1978 2266M2108 2266L2109 2267L2108 2266M896 2267L897 2268L896 2267M1025 2267L1026 2268L1025 2267M1976 2267L1977 2268L1976 2267M2105 2267L2106 2268L2105 2267M899 2268L900 2269L899 2268M1027 2268L1028 2269L1027 2268M1974 2268L1975 2269L1974 2268M2102 2268L2103 2269L2102 2268M902 2269L903 2270L902 2269M1029 2269L1030 2270L1029 2269M1972 2269L1973 2270L1972 2269M2099 2269L2100 2270L2099 2269M905 2270L906 2271L905 2270M1031 2270L1032 2271L1031 2270M1970 2270L1971 2271L1970 2270M2096 2270L2097 2271L2096 2270M907.667 2271.33L908.333 2271.67L907.667 2271.33M1033 2271L1034 2272L1033 2271M1968 2271L1969 2272L1968 2271M2093.67 2271.33L2094.33 2271.67L2093.67 2271.33M910.667 2272.33L911.333 2272.67L910.667 2272.33M1035 2272L1036 2273L1035 2272M1966 2272L1967 2273L1966 2272M2090.67 2272.33L2091.33 2272.67L2090.67 2272.33M913.667 2273.33L914.333 2273.67L913.667 2273.33M1037 2273L1038 2274L1037 2273M1964 2273L1965 2274L1964 2273M2087.67 2273.33L2088.33 2273.67L2087.67 2273.33M916 2274L917 2275L916 2274M1038 2274L1039 2275L1038 2274M1962 2274L1963 2275L1962 2274M2085 2274L2086 2275L2085 2274M919 2275L920 2276L919 2275M1040 2275L1041 2276L1040 2275M1961 2275L1962 2276L1961 2275M2082 2275L2083 2276L2082 2275M922 2276L923 2277L922 2276M1042 2276L1043 2277L1042 2276M1959 2276L1960 2277L1959 2276M2079 2276L2080 2277L2079 2276M924.667 2277.33L925.333 2277.67L924.667 2277.33M1044 2277L1045 2278L1044 2277M1957 2277L1958 2278L1957 2277M2076.67 2277.33L2077.33 2277.67L2076.67 2277.33M927.667 2278.33L928.333 2278.67L927.667 2278.33M1046 2278L1047 2279L1046 2278M1955 2278L1956 2279L1955 2278M2073.67 2278.33L2074.33 2278.67L2073.67 2278.33M930 2279L931 2280L930 2279M1048 2279L1049 2280L1048 2279M1953 2279L1954 2280L1953 2279M2071 2279L2072 2280L2071 2279M933 2280L934 2281L933 2280M1050 2280L1051 2281L1050 2280M1951 2280L1952 2281L1951 2280M2068 2280L2069 2281L2068 2280M935.667 2281.33L936.333 2281.67L935.667 2281.33M1051 2281L1052 2282L1051 2281M1949 2281L1950 2282L1949 2281M2065.67 2281.33L2066.33 2281.67L2065.67 2281.33M938 2282L939 2283L938 2282M1053 2282L1054 2283L1053 2282M1948 2282L1949 2283L1948 2282M2062.67 2282.33L2063.33 2282.67L2062.67 2282.33M941 2283L942 2284L941 2283M1055 2283L1056 2284L1055 2283M1946 2283L1947 2284L1946 2283M2060 2283L2061 2284L2060 2283M943.667 2284.33L944.333 2284.67L943.667 2284.33M1057 2284L1058 2285L1057 2284M1944 2284L1945 2285L1944 2284M2057 2284L2058 2285L2057 2284M946 2285L947 2286L946 2285M1059 2285L1060 2286L1059 2285M1942 2285L1943 2286L1942 2285M2054.67 2285.33L2055.33 2285.67L2054.67 2285.33M949 2286L950 2287L949 2286M1060 2286L1061 2287L1060 2286M1940 2286L1941 2287L1940 2286M2052 2286L2053 2287L2052 2286M951.667 2287.33L952.333 2287.67L951.667 2287.33M1062 2287L1063 2288L1062 2287M1939 2287L1940 2288L1939 2287M2049.67 2287.33L2050.33 2287.67L2049.67 2287.33M954 2288L955 2289L954 2288M1064 2288L1065 2289L1064 2288M1937 2288L1938 2289L1937 2288M2047 2288L2048 2289L2047 2288M957 2289L958 2290L957 2289M1066 2289L1067 2290L1066 2289M1935 2289L1936 2290L1935 2289M2044 2289L2045 2290L2044 2289M959.667 2290.33L960.333 2290.67L959.667 2290.33M1068 2290L1069 2291L1068 2290M1933 2290L1934 2291L1933 2290M2041.67 2290.33L2042.33 2290.67L2041.67 2290.33M962 2291L963 2292L962 2291M1069 2291L1070 2292L1069 2291M1932 2291L1933 2292L1932 2291M2039 2291L2040 2292L2039 2291M964.667 2292.33L965.333 2292.67L964.667 2292.33M1071 2292L1072 2293L1071 2292M1930 2292L1931 2293L1930 2292M2036.67 2292.33L2037.33 2292.67L2036.67 2292.33M967 2293L968 2294L967 2293M1073 2293L1074 2294L1073 2293M1928 2293L1929 2294L1928 2293M2034 2293L2035 2294L2034 2293M969.667 2294.33L970.333 2294.67L969.667 2294.33M1075 2294L1076 2295L1075 2294M1926 2294L1927 2295L1926 2294M2031 2294L2032 2295L2031 2294M972 2295L973 2296L972 2295M1076 2295L1077 2296L1076 2295M1925 2295L1926 2296L1925 2295M2029 2295L2030 2296L2029 2295M975 2296L976 2297L975 2296M1078 2296L1079 2297L1078 2296M1923 2296L1924 2297L1923 2296M2026 2296L2027 2297L2026 2296M977 2297L978 2298L977 2297M1080 2297L1081 2298L1080 2297M1921 2297L1922 2298L1921 2297M2024 2297L2025 2298L2024 2297M980 2298L981 2299L980 2298M1081 2298L1082 2299L1081 2298M1919 2298L1920 2299L1919 2298M2021 2298L2022 2299L2021 2298M982 2299L983 2300L982 2299M1083 2299L1084 2300L1083 2299M1918 2299L1919 2300L1918 2299M2019 2299L2020 2300L2019 2299M984.667 2300.33L985.333 2300.67L984.667 2300.33M1085 2300L1086 2301L1085 2300M1916 2300L1917 2301L1916 2300M2016.67 2300.33L2017.33 2300.67L2016.67 2300.33M987 2301L988 2302L987 2301M1086 2301L1087 2302L1086 2301M1914 2301L1915 2302L1914 2301M2014 2301L2015 2302L2014 2301M989.667 2302.33L990.333 2302.67L989.667 2302.33M1088 2302L1089 2303L1088 2302M1913 2302L1914 2303L1913 2302M2011.67 2302.33L2012.33 2302.67L2011.67 2302.33M992 2303L993 2304L992 2303M1090 2303L1091 2304L1090 2303M1911 2303L1912 2304L1911 2303M2009 2303L2010 2304L2009 2303M994 2304L995 2305L994 2304M1092 2304L1093 2305L1092 2304M1909 2304L1910 2305L1909 2304M2007 2304L2008 2305L2007 2304M997 2305L998 2306L997 2305M1093 2305L1094 2306L1093 2305M1908 2305L1909 2306L1908 2305M2004 2305L2005 2306L2004 2305M999 2306L1000 2307L999 2306M1095 2306L1096 2307L1095 2306M1906 2306L1907 2307L1906 2306M2002 2306L2003 2307L2002 2306M1001.67 2307.33L1002.33 2307.67L1001.67 2307.33M1096 2307L1097 2308L1096 2307M1904 2307L1905 2308L1904 2307M1999.67 2307.33L2000.33 2307.67L1999.67 2307.33M1004 2308L1005 2309L1004 2308M1098 2308L1099 2309L1098 2308M1903 2308L1904 2309L1903 2308M1997 2308L1998 2309L1997 2308M1006 2309L1007 2310L1006 2309M1100 2309L1101 2310L1100 2309M1901 2309L1902 2310L1901 2309M1995 2309L1996 2310L1995 2309M1008.67 2310.33L1009.33 2310.67L1008.67 2310.33M1101 2310L1102 2311L1101 2310M1899 2310L1900 2311L1899 2310M1992 2310L1993 2311L1992 2310M1011 2311L1012 2312L1011 2311M1103 2311L1104 2312L1103 2311M1898 2311L1899 2312L1898 2311M1990 2311L1991 2312L1990 2311M1013 2312L1014 2313L1013 2312M1105 2312L1106 2313L1105 2312M1896 2312L1897 2313L1896 2312M1988 2312L1989 2313L1988 2312M1015.67 2313.33L1016.33 2313.67L1015.67 2313.33M1106 2313L1107 2314L1106 2313M1894 2313L1895 2314L1894 2313M1985 2313L1986 2314L1985 2313M1018 2314L1019 2315L1018 2314M1108 2314L1109 2315L1108 2314M1893 2314L1894 2315L1893 2314M1983 2314L1984 2315L1983 2314M1020 2315L1021 2316L1020 2315M1109 2315L1110 2316L1109 2315M1891 2315L1892 2316L1891 2315M1981 2315L1982 2316L1981 2315M1022.67 2316.33L1023.33 2316.67L1022.67 2316.33M1111 2316L1112 2317L1111 2316M1890 2316L1891 2317L1890 2316M1978.67 2316.33L1979.33 2316.67L1978.67 2316.33M1025 2317L1026 2318L1025 2317M1113 2317L1114 2318L1113 2317M1888 2317L1889 2318L1888 2317M1976 2317L1977 2318L1976 2317M1027 2318L1028 2319L1027 2318M1114 2318L1115 2319L1114 2318M1886 2318L1887 2319L1886 2318M1974 2318L1975 2319L1974 2318M1029 2319L1030 2320L1029 2319M1116 2319L1117 2320L1116 2319M1885 2319L1886 2320L1885 2319M1972 2319L1973 2320L1972 2319M1031.67 2320.33L1032.33 2320.67L1031.67 2320.33M1117 2320L1118 2321L1117 2320M1883 2320L1884 2321L1883 2320M1969 2320L1970 2321L1969 2320M1034 2321L1035 2322L1034 2321M1119 2321L1120 2322L1119 2321M1882 2321L1883 2322L1882 2321M1967 2321L1968 2322L1967 2321M1036 2322L1037 2323L1036 2322M1121 2322L1122 2323L1121 2322M1880 2322L1881 2323L1880 2322M1965 2322L1966 2323L1965 2322M1038 2323L1039 2324L1038 2323M1122 2323L1123 2324L1122 2323M1879 2323L1880 2324L1879 2323M1963 2323L1964 2324L1963 2323M1040.67 2324.33L1041.33 2324.67L1040.67 2324.33M1124 2324L1125 2325L1124 2324M1877 2324L1878 2325L1877 2324M1960.67 2324.33L1961.33 2324.67L1960.67 2324.33M1043 2325L1044 2326L1043 2325M1125 2325L1126 2326L1125 2325M1875 2325L1876 2326L1875 2325M1958 2325L1959 2326L1958 2325M1045 2326L1046 2327L1045 2326M1127 2326L1128 2327L1127 2326M1874 2326L1875 2327L1874 2326M1956 2326L1957 2327L1956 2326M1047 2327L1048 2328L1047 2327M1128 2327L1129 2328L1128 2327M1872 2327L1873 2328L1872 2327M1954 2327L1955 2328L1954 2327M1049 2328L1050 2329L1049 2328M1130 2328L1131 2329L1130 2328M1871 2328L1872 2329L1871 2328M1952 2328L1953 2329L1952 2328M1051 2329L1052 2330L1051 2329M1131 2329L1132 2330L1131 2329M1869 2329L1870 2330L1869 2329M1949.67 2329.33L1950.33 2329.67L1949.67 2329.33M1054 2330L1055 2331L1054 2330M1133 2330L1134 2331L1133 2330M1868 2330L1869 2331L1868 2330M1947 2330L1948 2331L1947 2330M1056 2331L1057 2332L1056 2331M1134 2331L1135 2332L1134 2331M1866 2331L1867 2332L1866 2331M1945 2331L1946 2332L1945 2331M1058 2332L1059 2333L1058 2332M1136 2332L1137 2333L1136 2332M1865 2332L1866 2333L1865 2332M1943 2332L1944 2333L1943 2332M1060 2333L1061 2334L1060 2333M1138 2333L1139 2334L1138 2333M1863 2333L1864 2334L1863 2333M1941 2333L1942 2334L1941 2333M1062 2334L1063 2335L1062 2334M1139 2334L1140 2335L1139 2334M1862 2334L1863 2335L1862 2334M1939 2334L1940 2335L1939 2334M1064 2335L1065 2336L1064 2335M1141 2335L1142 2336L1141 2335M1860 2335L1861 2336L1860 2335M1937 2335L1938 2336L1937 2335M1066 2336L1067 2337L1066 2336M1142 2336L1143 2337L1142 2336M1859 2336L1860 2337L1859 2336M1934.67 2336.33L1935.33 2336.67L1934.67 2336.33M1069 2337L1070 2338L1069 2337M1144 2337L1145 2338L1144 2337M1857 2337L1858 2338L1857 2337M1932 2337L1933 2338L1932 2337M1071 2338L1072 2339L1071 2338M1145 2338L1146 2339L1145 2338M1856 2338L1857 2339L1856 2338M1930 2338L1931 2339L1930 2338M1073 2339L1074 2340L1073 2339M1147 2339L1148 2340L1147 2339M1854 2339L1855 2340L1854 2339M1928 2339L1929 2340L1928 2339M1075 2340L1076 2341L1075 2340M1148 2340L1149 2341L1148 2340M1853 2340L1854 2341L1853 2340M1926 2340L1927 2341L1926 2340M1077 2341L1078 2342L1077 2341M1149 2341L1150 2342L1149 2341M1851 2341L1852 2342L1851 2341M1924 2341L1925 2342L1924 2341M1079 2342L1080 2343L1079 2342M1151 2342L1152 2343L1151 2342M1850 2342L1851 2343L1850 2342M1922 2342L1923 2343L1922 2342M1081 2343L1082 2344L1081 2343M1152 2343L1153 2344L1152 2343M1848 2343L1849 2344L1848 2343M1920 2343L1921 2344L1920 2343M1083 2344L1084 2345L1083 2344M1154 2344L1155 2345L1154 2344M1847 2344L1848 2345L1847 2344M1918 2344L1919 2345L1918 2344M1085 2345L1086 2346L1085 2345M1155 2345L1156 2346L1155 2345M1845 2345L1846 2346L1845 2345M1916 2345L1917 2346L1916 2345M1087 2346L1088 2347L1087 2346M1157 2346L1158 2347L1157 2346M1844 2346L1845 2347L1844 2346M1914 2346L1915 2347L1914 2346M1089 2347L1090 2348L1089 2347M1158 2347L1159 2348L1158 2347M1842 2347L1843 2348L1842 2347M1912 2347L1913 2348L1912 2347M1091 2348L1092 2349L1091 2348M1160 2348L1161 2349L1160 2348M1841 2348L1842 2349L1841 2348M1910 2348L1911 2349L1910 2348M1093 2349L1094 2350L1093 2349M1161 2349L1162 2350L1161 2349M1840 2349L1841 2350L1840 2349M1908 2349L1909 2350L1908 2349M1095 2350L1096 2351L1095 2350M1163 2350L1164 2351L1163 2350M1838 2350L1839 2351L1838 2350M1906 2350L1907 2351L1906 2350M1097 2351L1098 2352L1097 2351M1164 2351L1165 2352L1164 2351M1837 2351L1838 2352L1837 2351M1904 2351L1905 2352L1904 2351M1099 2352L1100 2353L1099 2352M1165 2352L1166 2353L1165 2352M1835 2352L1836 2353L1835 2352M1902 2352L1903 2353L1902 2352M1101 2353L1102 2354L1101 2353M1167 2353L1168 2354L1167 2353M1834 2353L1835 2354L1834 2353M1900 2353L1901 2354L1900 2353M1103 2354L1104 2355L1103 2354M1168 2354L1169 2355L1168 2354M1832 2354L1833 2355L1832 2354M1898 2354L1899 2355L1898 2354M1105 2355L1106 2356L1105 2355M1170 2355L1171 2356L1170 2355M1831 2355L1832 2356L1831 2355M1896 2355L1897 2356L1896 2355M1107 2356L1108 2357L1107 2356M1171 2356L1172 2357L1171 2356M1830 2356L1831 2357L1830 2356M1894 2356L1895 2357L1894 2356M1109 2357L1110 2358L1109 2357M1172 2357L1173 2358L1172 2357M1828 2357L1829 2358L1828 2357M1892 2357L1893 2358L1892 2357M1111 2358L1112 2359L1111 2358M1174 2358L1175 2359L1174 2358M1827 2358L1828 2359L1827 2358M1890 2358L1891 2359L1890 2358M1113 2359L1114 2360L1113 2359M1175 2359L1176 2360L1175 2359M1825 2359L1826 2360L1825 2359M1888 2359L1889 2360L1888 2359M1115 2360L1116 2361L1115 2360M1177 2360L1178 2361L1177 2360M1824 2360L1825 2361L1824 2360M1886 2360L1887 2361L1886 2360M1117 2361L1118 2362L1117 2361M1178 2361L1179 2362L1178 2361M1823 2361L1824 2362L1823 2361M1884 2361L1885 2362L1884 2361M1119 2362L1120 2363L1119 2362M1179 2362L1180 2363L1179 2362M1821 2362L1822 2363L1821 2362M1882 2362L1883 2363L1882 2362M1121 2363L1122 2364L1121 2363M1181 2363L1182 2364L1181 2363M1820 2363L1821 2364L1820 2363M1880 2363L1881 2364L1880 2363M1123 2364L1124 2365L1123 2364M1182 2364L1183 2365L1182 2364M1818 2364L1819 2365L1818 2364M1878 2364L1879 2365L1878 2364M1125 2365L1126 2366L1125 2365M1184 2365L1185 2366L1184 2365M1817 2365L1818 2366L1817 2365M1876 2365L1877 2366L1876 2365M1127 2366L1128 2367L1127 2366M1185 2366L1186 2367L1185 2366M1816 2366L1817 2367L1816 2366M1874 2366L1875 2367L1874 2366M1129 2367L1130 2368L1129 2367M1186 2367L1187 2368L1186 2367M1814 2367L1815 2368L1814 2367M1872 2367L1873 2368L1872 2367M1131 2368L1132 2369L1131 2368M1188 2368L1189 2369L1188 2368M1813 2368L1814 2369L1813 2368M1870 2368L1871 2369L1870 2368M1133 2369L1134 2370L1133 2369M1189 2369L1190 2370L1189 2369M1812 2369L1813 2370L1812 2369M1868 2369L1869 2370L1868 2369M1134 2370L1135 2371L1134 2370M1190 2370L1191 2371L1190 2370M1810 2370L1811 2371L1810 2370M1866 2370L1867 2371L1866 2370M1136 2371L1137 2372L1136 2371M1192 2371L1193 2372L1192 2371M1809 2371L1810 2372L1809 2371M1865 2371L1866 2372L1865 2371M1138 2372L1139 2373L1138 2372M1193 2372L1194 2373L1193 2372M1808 2372L1809 2373L1808 2372M1863 2372L1864 2373L1863 2372M1140 2373L1141 2374L1140 2373M1194 2373L1195 2374L1194 2373M1806 2373L1807 2374L1806 2373M1861 2373L1862 2374L1861 2373M1142 2374L1143 2375L1142 2374M1196 2374L1197 2375L1196 2374M1805 2374L1806 2375L1805 2374M1859 2374L1860 2375L1859 2374M1144 2375L1145 2376L1144 2375M1197 2375L1198 2376L1197 2375M1804 2375L1805 2376L1804 2375M1857 2375L1858 2376L1857 2375M1146 2376L1147 2377L1146 2376M1198 2376L1199 2377L1198 2376M1802 2376L1803 2377L1802 2376M1855 2376L1856 2377L1855 2376M1148 2377L1149 2378L1148 2377M1200 2377L1201 2378L1200 2377M1801 2377L1802 2378L1801 2377M1853 2377L1854 2378L1853 2377M1149 2378L1150 2379L1149 2378M1201 2378L1202 2379L1201 2378M1800 2378L1801 2379L1800 2378M1851 2378L1852 2379L1851 2378M1151 2379L1152 2380L1151 2379M1202 2379L1203 2380L1202 2379M1798 2379L1799 2380L1798 2379M1850 2379L1851 2380L1850 2379M1153 2380L1154 2381L1153 2380M1204 2380L1205 2381L1204 2380M1797 2380L1798 2381L1797 2380M1848 2380L1849 2381L1848 2380M1155 2381L1156 2382L1155 2381M1205 2381L1206 2382L1205 2381M1796 2381L1797 2382L1796 2381M1846 2381L1847 2382L1846 2381M1157 2382L1158 2383L1157 2382M1206 2382L1207 2383L1206 2382M1794 2382L1795 2383L1794 2382M1844 2382L1845 2383L1844 2382M1159 2383L1160 2384L1159 2383M1208 2383L1209 2384L1208 2383M1793 2383L1794 2384L1793 2383M1842 2383L1843 2384L1842 2383M1160 2384L1161 2385L1160 2384M1209 2384L1210 2385L1209 2384M1792 2384L1793 2385L1792 2384M1840 2384L1841 2385L1840 2384M1162 2385L1163 2386L1162 2385M1210 2385L1211 2386L1210 2385M1790 2385L1791 2386L1790 2385M1839 2385L1840 2386L1839 2385M1164 2386L1165 2387L1164 2386M1212 2386L1213 2387L1212 2386M1789 2386L1790 2387L1789 2386M1837 2386L1838 2387L1837 2386M1166 2387L1167 2388L1166 2387M1213 2387L1214 2388L1213 2387M1788 2387L1789 2388L1788 2387M1835 2387L1836 2388L1835 2387M1168 2388L1169 2389L1168 2388M1214 2388L1215 2389L1214 2388M1786 2388L1787 2389L1786 2388M1833 2388L1834 2389L1833 2388M1169 2389L1170 2390L1169 2389M1215 2389L1216 2390L1215 2389M1785 2389L1786 2390L1785 2389M1831 2389L1832 2390L1831 2389M1171 2390L1172 2391L1171 2390M1217 2390L1218 2391L1217 2390M1784 2390L1785 2391L1784 2390M1830 2390L1831 2391L1830 2390M1173 2391L1174 2392L1173 2391M1218 2391L1219 2392L1218 2391M1783 2391L1784 2392L1783 2391M1828 2391L1829 2392L1828 2391M1175 2392L1176 2393L1175 2392M1219 2392L1220 2393L1219 2392M1781 2392L1782 2393L1781 2392M1826 2392L1827 2393L1826 2392M1177 2393L1178 2394L1177 2393M1221 2393L1222 2394L1221 2393M1780 2393L1781 2394L1780 2393M1824 2393L1825 2394L1824 2393M1178 2394L1179 2395L1178 2394M1222 2394L1223 2395L1222 2394M1779 2394L1780 2395L1779 2394M1822 2394L1823 2395L1822 2394M1180 2395L1181 2396L1180 2395M1223 2395L1224 2396L1223 2395M1778 2395L1779 2396L1778 2395M1821 2395L1822 2396L1821 2395M1182 2396L1183 2397L1182 2396M1224 2396L1225 2397L1224 2396M1776 2396L1777 2397L1776 2396M1819 2396L1820 2397L1819 2396M1184 2397L1185 2398L1184 2397M1226 2397L1227 2398L1226 2397M1775 2397L1776 2398L1775 2397M1817 2397L1818 2398L1817 2397M1185 2398L1186 2399L1185 2398M1227 2398L1228 2399L1227 2398M1774 2398L1775 2399L1774 2398M1815 2398L1816 2399L1815 2398M1187 2399L1188 2400L1187 2399M1228 2399L1229 2400L1228 2399M1772 2399L1773 2400L1772 2399M1814 2399L1815 2400L1814 2399M1189 2400L1190 2401L1189 2400M1229 2400L1230 2401L1229 2400M1771 2400L1772 2401L1771 2400M1812 2400L1813 2401L1812 2400M1191 2401L1192 2402L1191 2401M1231 2401L1232 2402L1231 2401M1770 2401L1771 2402L1770 2401M1810 2401L1811 2402L1810 2401M1192 2402L1193 2403L1192 2402M1232 2402L1233 2403L1232 2402M1769 2402L1770 2403L1769 2402M1808 2402L1809 2403L1808 2402M1194 2403L1195 2404L1194 2403M1233 2403L1234 2404L1233 2403M1768 2403L1769 2404L1768 2403M1807 2403L1808 2404L1807 2403M1196 2404L1197 2405L1196 2404M1234 2404L1235 2405L1234 2404M1766 2404L1767 2405L1766 2404M1805 2404L1806 2405L1805 2404M1198 2405L1199 2406L1198 2405M1236 2405L1237 2406L1236 2405M1765 2405L1766 2406L1765 2405M1803 2405L1804 2406L1803 2405M1199 2406L1200 2407L1199 2406M1237 2406L1238 2407L1237 2406M1764 2406L1765 2407L1764 2406M1802 2406L1803 2407L1802 2406M1201 2407L1202 2408L1201 2407M1238 2407L1239 2408L1238 2407M1763 2407L1764 2408L1763 2407M1800 2407L1801 2408L1800 2407M1203 2408L1204 2409L1203 2408M1239 2408L1240 2409L1239 2408M1761 2408L1762 2409L1761 2408M1798 2408L1799 2409L1798 2408M1204 2409L1205 2410L1204 2409M1240 2409L1241 2410L1240 2409M1760 2409L1761 2410L1760 2409M1796 2409L1797 2410L1796 2409M1206 2410L1207 2411L1206 2410M1242 2410L1243 2411L1242 2410M1759 2410L1760 2411L1759 2410M1795 2410L1796 2411L1795 2410M1208 2411L1209 2412L1208 2411M1243 2411L1244 2412L1243 2411M1758 2411L1759 2412L1758 2411M1793 2411L1794 2412L1793 2411M1209 2412L1210 2413L1209 2412M1244 2412L1245 2413L1244 2412M1756 2412L1757 2413L1756 2412M1791 2412L1792 2413L1791 2412M1211 2413L1212 2414L1211 2413M1245 2413L1246 2414L1245 2413M1755 2413L1756 2414L1755 2413M1790 2413L1791 2414L1790 2413M1213 2414L1214 2415L1213 2414M1246 2414L1247 2415L1246 2414M1754 2414L1755 2415L1754 2414M1788 2414L1789 2415L1788 2414M1214 2415L1215 2416L1214 2415M1248 2415L1249 2416L1248 2415M1753 2415L1754 2416L1753 2415M1786 2415L1787 2416L1786 2415M1216 2416L1217 2417L1216 2416M1249 2416L1250 2417L1249 2416M1752 2416L1753 2417L1752 2416M1785 2416L1786 2417L1785 2416M1218 2417L1219 2418L1218 2417M1250 2417L1251 2418L1250 2417M1750 2417L1751 2418L1750 2417M1783 2417L1784 2418L1783 2417M1219 2418L1220 2419L1219 2418M1251 2418L1252 2419L1251 2418M1749 2418L1750 2419L1749 2418M1781 2418L1782 2419L1781 2418M1221 2419L1222 2420L1221 2419M1252 2419L1253 2420L1252 2419M1748 2419L1749 2420L1748 2419M1780 2419L1781 2420L1780 2419M1223 2420L1224 2421L1223 2420M1254 2420L1255 2421L1254 2420M1747 2420L1748 2421L1747 2420M1778 2420L1779 2421L1778 2420M1224 2421L1225 2422L1224 2421M1255 2421L1256 2422L1255 2421M1746 2421L1747 2422L1746 2421M1776 2421L1777 2422L1776 2421M1226 2422L1227 2423L1226 2422M1256 2422L1257 2423L1256 2422M1745 2422L1746 2423L1745 2422M1775 2422L1776 2423L1775 2422M1228 2423L1229 2424L1228 2423M1257 2423L1258 2424L1257 2423M1743 2423L1744 2424L1743 2423M1773 2423L1774 2424L1773 2423M1229 2424L1230 2425L1229 2424M1258 2424L1259 2425L1258 2424M1742 2424L1743 2425L1742 2424M1771 2424L1772 2425L1771 2424M1231 2425L1232 2426L1231 2425M1260 2425L1261 2426L1260 2425M1741 2425L1742 2426L1741 2425M1770 2425L1771 2426L1770 2425M1233 2426L1234 2427L1233 2426M1261 2426L1262 2427L1261 2426M1740 2426L1741 2427L1740 2426M1768 2426L1769 2427L1768 2426M1234 2427L1235 2428L1234 2427M1262 2427L1263 2428L1262 2427M1739 2427L1740 2428L1739 2427M1767 2427L1768 2428L1767 2427M1236 2428L1237 2429L1236 2428M1263 2428L1264 2429L1263 2428M1737 2428L1738 2429L1737 2428M1765 2428L1766 2429L1765 2428M1237 2429L1238 2430L1237 2429M1264 2429L1265 2430L1264 2429M1736 2429L1737 2430L1736 2429M1763 2429L1764 2430L1763 2429M1239 2430L1240 2431L1239 2430M1265 2430L1266 2431L1265 2430M1735 2430L1736 2431L1735 2430M1762 2430L1763 2431L1762 2430M1241 2431L1242 2432L1241 2431M1267 2431L1268 2432L1267 2431M1734 2431L1735 2432L1734 2431M1760 2431L1761 2432L1760 2431M1242 2432L1243 2433L1242 2432M1268 2432L1269 2433L1268 2432M1733 2432L1734 2433L1733 2432M1759 2432L1760 2433L1759 2432M1244 2433L1245 2434L1244 2433M1269 2433L1270 2434L1269 2433M1732 2433L1733 2434L1732 2433M1757 2433L1758 2434L1757 2433M1245 2434L1246 2435L1245 2434M1270 2434L1271 2435L1270 2434M1731 2434L1732 2435L1731 2434M1755 2434L1756 2435L1755 2434M1247 2435L1248 2436L1247 2435M1271 2435L1272 2436L1271 2435M1729 2435L1730 2436L1729 2435M1754 2435L1755 2436L1754 2435M1249 2436L1250 2437L1249 2436M1272 2436L1273 2437L1272 2436M1728 2436L1729 2437L1728 2436M1752 2436L1753 2437L1752 2436M1250 2437L1251 2438L1250 2437M1273 2437L1274 2438L1273 2437M1727 2437L1728 2438L1727 2437M1751 2437L1752 2438L1751 2437M1252 2438L1253 2439L1252 2438M1275 2438L1276 2439L1275 2438M1726 2438L1727 2439L1726 2438M1749 2438L1750 2439L1749 2438M1253 2439L1254 2440L1253 2439M1276 2439L1277 2440L1276 2439M1725 2439L1726 2440L1725 2439M1747 2439L1748 2440L1747 2439M1255 2440L1256 2441L1255 2440M1277 2440L1278 2441L1277 2440M1724 2440L1725 2441L1724 2440M1746 2440L1747 2441L1746 2440M1256 2441L1257 2442L1256 2441M1278 2441L1279 2442L1278 2441M1723 2441L1724 2442L1723 2441M1744 2441L1745 2442L1744 2441M1258 2442L1259 2443L1258 2442M1279 2442L1280 2443L1279 2442M1721 2442L1722 2443L1721 2442M1743 2442L1744 2443L1743 2442M1260 2443L1261 2444L1260 2443M1280 2443L1281 2444L1280 2443M1720 2443L1721 2444L1720 2443M1741 2443L1742 2444L1741 2443M1261 2444L1262 2445L1261 2444M1281 2444L1282 2445L1281 2444M1719 2444L1720 2445L1719 2444M1740 2444L1741 2445L1740 2444M1263 2445L1264 2446L1263 2445M1282 2445L1283 2446L1282 2445M1718 2445L1719 2446L1718 2445M1738 2445L1739 2446L1738 2445M1264 2446L1265 2447L1264 2446M1284 2446L1285 2447L1284 2446M1717 2446L1718 2447L1717 2446M1737 2446L1738 2447L1737 2446M1266 2447L1267 2448L1266 2447M1285 2447L1286 2448L1285 2447M1716 2447L1717 2448L1716 2447M1735 2447L1736 2448L1735 2447M1267 2448L1268 2449L1267 2448M1286 2448L1287 2449L1286 2448M1715 2448L1716 2449L1715 2448M1734 2448L1735 2449L1734 2448M1269 2449L1270 2450L1269 2449M1287 2449L1288 2450L1287 2449M1714 2449L1715 2450L1714 2449M1732 2449L1733 2450L1732 2449M1270 2450L1271 2451L1270 2450M1288 2450L1289 2451L1288 2450M1713 2450L1714 2451L1713 2450M1730 2450L1731 2451L1730 2450M1272 2451L1273 2452L1272 2451M1289 2451L1290 2452L1289 2451M1711 2451L1712 2452L1711 2451M1729 2451L1730 2452L1729 2451M1273 2452L1274 2453L1273 2452M1290 2452L1291 2453L1290 2452M1710 2452L1711 2453L1710 2452M1727 2452L1728 2453L1727 2452M1275 2453L1276 2454L1275 2453M1291 2453L1292 2454L1291 2453M1709 2453L1710 2454L1709 2453M1726 2453L1727 2454L1726 2453M1276 2454L1277 2455L1276 2454M1292 2454L1293 2455L1292 2454M1708 2454L1709 2455L1708 2454M1724 2454L1725 2455L1724 2454M1278 2455L1279 2456L1278 2455M1293 2455L1294 2456L1293 2455M1707 2455L1708 2456L1707 2455M1723 2455L1724 2456L1723 2455M1279 2456L1280 2457L1279 2456M1295 2456L1296 2457L1295 2456M1706 2456L1707 2457L1706 2456M1721 2456L1722 2457L1721 2456M1281 2457L1282 2458L1281 2457M1296 2457L1297 2458L1296 2457M1705 2457L1706 2458L1705 2457M1720 2457L1721 2458L1720 2457M1282 2458L1283 2459L1282 2458M1297 2458L1298 2459L1297 2458M1704 2458L1705 2459L1704 2458M1718 2458L1719 2459L1718 2458M1284 2459L1285 2460L1284 2459M1298 2459L1299 2460L1298 2459M1703 2459L1704 2460L1703 2459M1717 2459L1718 2460L1717 2459M1285 2460L1286 2461L1285 2460M1299 2460L1300 2461L1299 2460M1702 2460L1703 2461L1702 2460M1715 2460L1716 2461L1715 2460M1287 2461L1288 2462L1287 2461M1300 2461L1301 2462L1300 2461M1701 2461L1702 2462L1701 2461M1714 2461L1715 2462L1714 2461M1288 2462L1289 2463L1288 2462M1301 2462L1302 2463L1301 2462M1699 2462L1700 2463L1699 2462M1712 2462L1713 2463L1712 2462M1290 2463L1291 2464L1290 2463M1302 2463L1303 2464L1302 2463M1698 2463L1699 2464L1698 2463M1711 2463L1712 2464L1711 2463M1291 2464L1292 2465L1291 2464M1303 2464L1304 2465L1303 2464M1697 2464L1698 2465L1697 2464M1710 2464L1711 2465L1710 2464M1293 2465L1294 2466L1293 2465M1304 2465L1305 2466L1304 2465M1696 2465L1697 2466L1696 2465M1708 2465L1709 2466L1708 2465M1294 2466L1295 2467L1294 2466M1305 2466L1306 2467L1305 2466M1695 2466L1696 2467L1695 2466M1707 2466L1708 2467L1707 2466M1296 2467L1297 2468L1296 2467M1306 2467L1307 2468L1306 2467M1694 2467L1695 2468L1694 2467M1705 2467L1706 2468L1705 2467M1297 2468L1298 2469L1297 2468M1307 2468L1308 2469L1307 2468M1693 2468L1694 2469L1693 2468M1704 2468L1705 2469L1704 2468M1298 2469L1299 2470L1298 2469M1309 2469L1310 2470L1309 2469M1692 2469L1693 2470L1692 2469M1702 2469L1703 2470L1702 2469M1300 2470L1301 2471L1300 2470M1310 2470L1311 2471L1310 2470M1691 2470L1692 2471L1691 2470M1701 2470L1702 2471L1701 2470M1301 2471L1302 2472L1301 2471M1311 2471L1312 2472L1311 2471M1690 2471L1691 2472L1690 2471M1699 2471L1700 2472L1699 2471M1303 2472L1304 2473L1303 2472M1312 2472L1313 2473L1312 2472M1689 2472L1690 2473L1689 2472M1698 2472L1699 2473L1698 2472M1304 2473L1305 2474L1304 2473M1313 2473L1314 2474L1313 2473M1688 2473L1689 2474L1688 2473M1696 2473L1697 2474L1696 2473M1306 2474L1307 2475L1306 2474M1314 2474L1315 2475L1314 2474M1687 2474L1688 2475L1687 2474M1695 2474L1696 2475L1695 2474M1307 2475L1308 2476L1307 2475M1315 2475L1316 2476L1315 2475M1686 2475L1687 2476L1686 2475M1694 2475L1695 2476L1694 2475M1308 2476L1309 2477L1308 2476M1316 2476L1317 2477L1316 2476M1685 2476L1686 2477L1685 2476M1692 2476L1693 2477L1692 2476M1310 2477L1311 2478L1310 2477M1317 2477L1318 2478L1317 2477M1684 2477L1685 2478L1684 2477M1691 2477L1692 2478L1691 2477M1311 2478L1312 2479L1311 2478M1318 2478L1326 2486L1318 2478z"/>
<path style="fill:#ffffe5; stroke:none;" d="M1319 2478L1320 2479L1319 2478z"/>
<path style="fill:#87919f; stroke:none;" d="M1683 2478L1684 2479L1683 2478M1689 2478L1690 2479L1689 2478M1313 2479L1314 2480L1313 2479z"/>
<path style="fill:#ffffe5; stroke:none;" d="M1320 2479L1321 2480L1320 2479M1680 2479L1679 2481L1680 2479z"/>
<path style="fill:#87919f; stroke:none;" d="M1681 2479L1682 2480L1681 2479M1688 2479L1689 2480L1688 2479M1314 2480L1315 2481L1314 2480z"/>
<path style="fill:#ffffe5; stroke:none;" d="M1321 2480L1322 2481L1321 2480z"/>
<path style="fill:#87919f; stroke:none;" d="M1680 2480L1681 2481L1680 2480M1687 2480L1688 2481L1687 2480M1315 2481L1316 2482L1315 2481M1679 2481L1680 2482L1679 2481M1685 2481L1686 2482L1685 2481M1317 2482L1318 2483L1317 2482M1678 2482L1679 2483L1678 2482M1684 2482L1685 2483L1684 2482M1318 2483L1319 2484L1318 2483M1677 2483L1678 2484L1677 2483M1682 2483L1683 2484L1682 2483M1320 2484L1321 2485L1320 2484M1676 2484L1677 2485L1676 2484M1681 2484L1682 2485L1681 2484M1321 2485L1322 2486L1321 2485z"/>
<path style="fill:#ffffe5; stroke:none;" d="M1670.33 2485.67L1670.67 2486.33L1670.33 2485.67z"/>
<path style="fill:#87919f; stroke:none;" d="M1675 2485L1676 2486L1675 2485M1680 2485L1681 2486L1680 2485M1322 2486L1323 2487L1322 2486M1326 2486L1327 2487L1326 2486M1674 2486L1675 2487L1674 2486M1678 2486L1679 2487L1678 2486M1324 2487L1325 2488L1324 2487M1327 2487L1328 2488L1327 2487M1331 2487L1332 2488L1331 2487M1673 2487L1674 2488L1673 2487M1677 2487L1678 2488L1677 2487M1325 2488L1326 2489L1325 2488z"/>
<path style="fill:#ffffe5; stroke:none;" d="M1332 2488L1333 2489L1332 2488M1669 2488L1670 2489L1669 2488z"/>
<path style="fill:#87919f; stroke:none;" d="M1676 2488L1677 2489L1676 2488M1326 2489L1327 2490L1326 2489M1332 2489L1333 2490L1332 2489M1674 2489L1675 2490L1674 2489M1328 2490L1329 2491L1328 2490z"/>
<path style="fill:#ffb92e; stroke:none;" d="M1333 2490L1334 2493L1335 2493L1335 2490L1333 2490z"/>
<path style="fill:#87919f; stroke:none;" d="M1668.33 2490.67L1668.67 2491.33L1668.33 2490.67M1673 2490L1674 2491L1673 2490M1329 2491L1330 2492L1329 2491M1333 2491L1334 2492L1333 2491M1672 2491L1673 2492L1672 2491M1330 2492L1331 2493L1330 2492M1667 2492C1667.51 2494.48 1667.6 2494.57 1670 2494L1667 2492M1670 2492L1671 2493L1670 2492M1332 2493L1335 2495L1332 2493z"/>
<path style="fill:#ffb92e; stroke:none;" d="M1335 2494L1336 2495L1335 2494M1666 2494L1667 2495L1666 2494z"/>
</svg>
